<mxfile host="app.diagrams.net" modified="2022-10-27T06:00:59.252Z" agent="5.0 (Macintosh; Intel Mac OS X 10_15_7) AppleWebKit/537.36 (KHTML, like Gecko) Chrome/106.0.0.0 Safari/537.36" etag="Ca4hDVXrJuz5AirRVGLL" version="20.4.0" type="github">
  <diagram id="a45cf8ec-cd66-6f27-3ac3-be6e809c9e4a" name="Page-1">
    <mxGraphModel dx="2063" dy="770" grid="1" gridSize="10" guides="1" tooltips="1" connect="1" arrows="1" fold="1" page="1" pageScale="1" pageWidth="827" pageHeight="1169" background="none" math="0" shadow="0">
      <root>
        <mxCell id="0" />
        <mxCell id="1" parent="0" />
        <mxCell id="IVa9H1ykFnVAchqWtqsk-222" value="" style="whiteSpace=wrap;html=1;" vertex="1" parent="1">
          <mxGeometry x="-300" y="20" width="740" height="380" as="geometry" />
        </mxCell>
        <mxCell id="IVa9H1ykFnVAchqWtqsk-176" style="edgeStyle=orthogonalEdgeStyle;rounded=0;orthogonalLoop=1;jettySize=auto;html=1;entryX=0;entryY=0.5;entryDx=0;entryDy=0;" edge="1" parent="1" source="IVa9H1ykFnVAchqWtqsk-172" target="IVa9H1ykFnVAchqWtqsk-175">
          <mxGeometry relative="1" as="geometry" />
        </mxCell>
        <mxCell id="IVa9H1ykFnVAchqWtqsk-172" value="A" style="ellipse;whiteSpace=wrap;html=1;aspect=fixed;" vertex="1" parent="1">
          <mxGeometry x="-36" y="55" width="30" height="30" as="geometry" />
        </mxCell>
        <mxCell id="IVa9H1ykFnVAchqWtqsk-174" style="edgeStyle=orthogonalEdgeStyle;rounded=0;orthogonalLoop=1;jettySize=auto;html=1;entryX=0;entryY=0.5;entryDx=0;entryDy=0;" edge="1" parent="1" source="IVa9H1ykFnVAchqWtqsk-173" target="IVa9H1ykFnVAchqWtqsk-172">
          <mxGeometry relative="1" as="geometry" />
        </mxCell>
        <mxCell id="IVa9H1ykFnVAchqWtqsk-173" value="pin 1" style="text;html=1;align=center;verticalAlign=middle;resizable=0;points=[];autosize=1;strokeColor=none;fillColor=none;" vertex="1" parent="1">
          <mxGeometry x="-130" y="55" width="50" height="30" as="geometry" />
        </mxCell>
        <mxCell id="IVa9H1ykFnVAchqWtqsk-179" style="edgeStyle=orthogonalEdgeStyle;rounded=0;orthogonalLoop=1;jettySize=auto;html=1;entryX=0;entryY=0.5;entryDx=0;entryDy=0;" edge="1" parent="1" source="IVa9H1ykFnVAchqWtqsk-175" target="IVa9H1ykFnVAchqWtqsk-177">
          <mxGeometry relative="1" as="geometry" />
        </mxCell>
        <mxCell id="IVa9H1ykFnVAchqWtqsk-175" value="A" style="ellipse;whiteSpace=wrap;html=1;aspect=fixed;" vertex="1" parent="1">
          <mxGeometry x="65" y="55" width="30" height="30" as="geometry" />
        </mxCell>
        <mxCell id="IVa9H1ykFnVAchqWtqsk-180" style="edgeStyle=orthogonalEdgeStyle;rounded=0;orthogonalLoop=1;jettySize=auto;html=1;entryX=0;entryY=0.5;entryDx=0;entryDy=0;" edge="1" parent="1" source="IVa9H1ykFnVAchqWtqsk-177" target="IVa9H1ykFnVAchqWtqsk-178">
          <mxGeometry relative="1" as="geometry" />
        </mxCell>
        <mxCell id="IVa9H1ykFnVAchqWtqsk-177" value="B" style="ellipse;whiteSpace=wrap;html=1;aspect=fixed;" vertex="1" parent="1">
          <mxGeometry x="145" y="55" width="30" height="30" as="geometry" />
        </mxCell>
        <mxCell id="IVa9H1ykFnVAchqWtqsk-178" value="C" style="ellipse;whiteSpace=wrap;html=1;aspect=fixed;" vertex="1" parent="1">
          <mxGeometry x="225" y="55" width="30" height="30" as="geometry" />
        </mxCell>
        <mxCell id="IVa9H1ykFnVAchqWtqsk-181" value="session&amp;nbsp;&amp;nbsp;" style="text;html=1;align=center;verticalAlign=middle;resizable=0;points=[];autosize=1;strokeColor=none;fillColor=none;" vertex="1" parent="1">
          <mxGeometry x="255" y="55" width="70" height="30" as="geometry" />
        </mxCell>
        <mxCell id="IVa9H1ykFnVAchqWtqsk-182" style="edgeStyle=orthogonalEdgeStyle;rounded=0;orthogonalLoop=1;jettySize=auto;html=1;entryX=0;entryY=0.5;entryDx=0;entryDy=0;" edge="1" parent="1" source="IVa9H1ykFnVAchqWtqsk-183" target="IVa9H1ykFnVAchqWtqsk-187">
          <mxGeometry relative="1" as="geometry" />
        </mxCell>
        <mxCell id="IVa9H1ykFnVAchqWtqsk-183" value="B" style="ellipse;whiteSpace=wrap;html=1;aspect=fixed;" vertex="1" parent="1">
          <mxGeometry x="-36" y="136" width="30" height="30" as="geometry" />
        </mxCell>
        <mxCell id="IVa9H1ykFnVAchqWtqsk-184" style="edgeStyle=orthogonalEdgeStyle;rounded=0;orthogonalLoop=1;jettySize=auto;html=1;entryX=0;entryY=0.5;entryDx=0;entryDy=0;" edge="1" parent="1" source="IVa9H1ykFnVAchqWtqsk-185" target="IVa9H1ykFnVAchqWtqsk-183">
          <mxGeometry relative="1" as="geometry" />
        </mxCell>
        <mxCell id="IVa9H1ykFnVAchqWtqsk-185" value="pin 1" style="text;html=1;align=center;verticalAlign=middle;resizable=0;points=[];autosize=1;strokeColor=none;fillColor=none;" vertex="1" parent="1">
          <mxGeometry x="-130" y="136" width="50" height="30" as="geometry" />
        </mxCell>
        <mxCell id="IVa9H1ykFnVAchqWtqsk-186" style="edgeStyle=orthogonalEdgeStyle;rounded=0;orthogonalLoop=1;jettySize=auto;html=1;entryX=0;entryY=0.5;entryDx=0;entryDy=0;" edge="1" parent="1" source="IVa9H1ykFnVAchqWtqsk-187" target="IVa9H1ykFnVAchqWtqsk-189">
          <mxGeometry relative="1" as="geometry" />
        </mxCell>
        <mxCell id="IVa9H1ykFnVAchqWtqsk-187" value="A" style="ellipse;whiteSpace=wrap;html=1;aspect=fixed;" vertex="1" parent="1">
          <mxGeometry x="65" y="136" width="30" height="30" as="geometry" />
        </mxCell>
        <mxCell id="IVa9H1ykFnVAchqWtqsk-188" style="edgeStyle=orthogonalEdgeStyle;rounded=0;orthogonalLoop=1;jettySize=auto;html=1;entryX=0;entryY=0.5;entryDx=0;entryDy=0;" edge="1" parent="1" source="IVa9H1ykFnVAchqWtqsk-189" target="IVa9H1ykFnVAchqWtqsk-190">
          <mxGeometry relative="1" as="geometry" />
        </mxCell>
        <mxCell id="IVa9H1ykFnVAchqWtqsk-189" value="B" style="ellipse;whiteSpace=wrap;html=1;aspect=fixed;" vertex="1" parent="1">
          <mxGeometry x="145" y="136" width="30" height="30" as="geometry" />
        </mxCell>
        <mxCell id="IVa9H1ykFnVAchqWtqsk-190" value="C" style="ellipse;whiteSpace=wrap;html=1;aspect=fixed;" vertex="1" parent="1">
          <mxGeometry x="225" y="136" width="30" height="30" as="geometry" />
        </mxCell>
        <mxCell id="IVa9H1ykFnVAchqWtqsk-191" value="session&amp;nbsp;" style="text;html=1;align=center;verticalAlign=middle;resizable=0;points=[];autosize=1;strokeColor=none;fillColor=none;" vertex="1" parent="1">
          <mxGeometry x="255" y="136" width="70" height="30" as="geometry" />
        </mxCell>
        <mxCell id="IVa9H1ykFnVAchqWtqsk-192" style="edgeStyle=orthogonalEdgeStyle;rounded=0;orthogonalLoop=1;jettySize=auto;html=1;entryX=0;entryY=0.5;entryDx=0;entryDy=0;" edge="1" parent="1" source="IVa9H1ykFnVAchqWtqsk-193" target="IVa9H1ykFnVAchqWtqsk-197">
          <mxGeometry relative="1" as="geometry" />
        </mxCell>
        <mxCell id="IVa9H1ykFnVAchqWtqsk-193" value="A" style="ellipse;whiteSpace=wrap;html=1;aspect=fixed;" vertex="1" parent="1">
          <mxGeometry x="-36" y="220" width="30" height="30" as="geometry" />
        </mxCell>
        <mxCell id="IVa9H1ykFnVAchqWtqsk-194" style="edgeStyle=orthogonalEdgeStyle;rounded=0;orthogonalLoop=1;jettySize=auto;html=1;entryX=0;entryY=0.5;entryDx=0;entryDy=0;" edge="1" parent="1" source="IVa9H1ykFnVAchqWtqsk-195" target="IVa9H1ykFnVAchqWtqsk-193">
          <mxGeometry relative="1" as="geometry" />
        </mxCell>
        <mxCell id="IVa9H1ykFnVAchqWtqsk-195" value="pin 2" style="text;html=1;align=center;verticalAlign=middle;resizable=0;points=[];autosize=1;strokeColor=none;fillColor=none;" vertex="1" parent="1">
          <mxGeometry x="-130" y="220" width="50" height="30" as="geometry" />
        </mxCell>
        <mxCell id="IVa9H1ykFnVAchqWtqsk-196" style="edgeStyle=orthogonalEdgeStyle;rounded=0;orthogonalLoop=1;jettySize=auto;html=1;entryX=0;entryY=0.5;entryDx=0;entryDy=0;" edge="1" parent="1" source="IVa9H1ykFnVAchqWtqsk-197" target="IVa9H1ykFnVAchqWtqsk-199">
          <mxGeometry relative="1" as="geometry" />
        </mxCell>
        <mxCell id="IVa9H1ykFnVAchqWtqsk-197" value="D" style="ellipse;whiteSpace=wrap;html=1;aspect=fixed;" vertex="1" parent="1">
          <mxGeometry x="65" y="220" width="30" height="30" as="geometry" />
        </mxCell>
        <mxCell id="IVa9H1ykFnVAchqWtqsk-199" value="B" style="ellipse;whiteSpace=wrap;html=1;aspect=fixed;" vertex="1" parent="1">
          <mxGeometry x="145" y="220" width="30" height="30" as="geometry" />
        </mxCell>
        <mxCell id="IVa9H1ykFnVAchqWtqsk-201" value="session&amp;nbsp;" style="text;html=1;align=center;verticalAlign=middle;resizable=0;points=[];autosize=1;strokeColor=none;fillColor=none;" vertex="1" parent="1">
          <mxGeometry x="255" y="220" width="70" height="30" as="geometry" />
        </mxCell>
        <mxCell id="IVa9H1ykFnVAchqWtqsk-212" style="edgeStyle=orthogonalEdgeStyle;rounded=0;orthogonalLoop=1;jettySize=auto;html=1;entryX=0;entryY=0.5;entryDx=0;entryDy=0;" edge="1" parent="1" source="IVa9H1ykFnVAchqWtqsk-213" target="IVa9H1ykFnVAchqWtqsk-217">
          <mxGeometry relative="1" as="geometry" />
        </mxCell>
        <mxCell id="IVa9H1ykFnVAchqWtqsk-213" value="D" style="ellipse;whiteSpace=wrap;html=1;aspect=fixed;" vertex="1" parent="1">
          <mxGeometry x="-36" y="300" width="30" height="30" as="geometry" />
        </mxCell>
        <mxCell id="IVa9H1ykFnVAchqWtqsk-214" style="edgeStyle=orthogonalEdgeStyle;rounded=0;orthogonalLoop=1;jettySize=auto;html=1;entryX=0;entryY=0.5;entryDx=0;entryDy=0;" edge="1" parent="1" source="IVa9H1ykFnVAchqWtqsk-215" target="IVa9H1ykFnVAchqWtqsk-213">
          <mxGeometry relative="1" as="geometry" />
        </mxCell>
        <mxCell id="IVa9H1ykFnVAchqWtqsk-215" value="pin 3" style="text;html=1;align=center;verticalAlign=middle;resizable=0;points=[];autosize=1;strokeColor=none;fillColor=none;" vertex="1" parent="1">
          <mxGeometry x="-130" y="300" width="50" height="30" as="geometry" />
        </mxCell>
        <mxCell id="IVa9H1ykFnVAchqWtqsk-216" style="edgeStyle=orthogonalEdgeStyle;rounded=0;orthogonalLoop=1;jettySize=auto;html=1;entryX=0;entryY=0.5;entryDx=0;entryDy=0;" edge="1" parent="1" source="IVa9H1ykFnVAchqWtqsk-217" target="IVa9H1ykFnVAchqWtqsk-219">
          <mxGeometry relative="1" as="geometry" />
        </mxCell>
        <mxCell id="IVa9H1ykFnVAchqWtqsk-217" value="A" style="ellipse;whiteSpace=wrap;html=1;aspect=fixed;" vertex="1" parent="1">
          <mxGeometry x="65" y="300" width="30" height="30" as="geometry" />
        </mxCell>
        <mxCell id="IVa9H1ykFnVAchqWtqsk-219" value="B" style="ellipse;whiteSpace=wrap;html=1;aspect=fixed;" vertex="1" parent="1">
          <mxGeometry x="145" y="300" width="30" height="30" as="geometry" />
        </mxCell>
        <mxCell id="IVa9H1ykFnVAchqWtqsk-221" value="session&amp;nbsp;" style="text;html=1;align=center;verticalAlign=middle;resizable=0;points=[];autosize=1;strokeColor=none;fillColor=none;" vertex="1" parent="1">
          <mxGeometry x="255" y="300" width="70" height="30" as="geometry" />
        </mxCell>
        <mxCell id="IVa9H1ykFnVAchqWtqsk-223" value="原始边" style="text;html=1;align=center;verticalAlign=middle;resizable=0;points=[];autosize=1;strokeColor=none;fillColor=none;" vertex="1" parent="1">
          <mxGeometry x="-220" y="55" width="60" height="30" as="geometry" />
        </mxCell>
        <mxCell id="IVa9H1ykFnVAchqWtqsk-246" style="edgeStyle=orthogonalEdgeStyle;rounded=0;orthogonalLoop=1;jettySize=auto;html=1;" edge="1" parent="1" source="IVa9H1ykFnVAchqWtqsk-225">
          <mxGeometry relative="1" as="geometry">
            <mxPoint x="-410" y="105" as="targetPoint" />
          </mxGeometry>
        </mxCell>
        <mxCell id="IVa9H1ykFnVAchqWtqsk-225" value="A&amp;nbsp; -&amp;gt; A&amp;nbsp; 1 pin1&amp;nbsp;&amp;nbsp;" style="text;html=1;align=center;verticalAlign=middle;resizable=0;points=[];autosize=1;strokeColor=#CC0000;fillColor=none;" vertex="1" parent="1">
          <mxGeometry x="-30" y="90" width="110" height="30" as="geometry" />
        </mxCell>
        <mxCell id="IVa9H1ykFnVAchqWtqsk-226" value="A&amp;nbsp; -&amp;gt; B&amp;nbsp; 2 pin1&amp;nbsp;&amp;nbsp;" style="text;html=1;align=center;verticalAlign=middle;resizable=0;points=[];autosize=1;strokeColor=none;fillColor=none;" vertex="1" parent="1">
          <mxGeometry x="65" y="90" width="110" height="30" as="geometry" />
        </mxCell>
        <mxCell id="IVa9H1ykFnVAchqWtqsk-227" value="B -&amp;gt; C&amp;nbsp; 3 pin1&amp;nbsp;&amp;nbsp;" style="text;html=1;align=center;verticalAlign=middle;resizable=0;points=[];autosize=1;strokeColor=none;fillColor=none;" vertex="1" parent="1">
          <mxGeometry x="165" y="90" width="100" height="30" as="geometry" />
        </mxCell>
        <mxCell id="IVa9H1ykFnVAchqWtqsk-228" value="B&amp;nbsp; -&amp;gt; A&amp;nbsp; 1 pin1&amp;nbsp;&amp;nbsp;" style="text;html=1;align=center;verticalAlign=middle;resizable=0;points=[];autosize=1;strokeColor=none;fillColor=none;" vertex="1" parent="1">
          <mxGeometry x="-27.5" y="180" width="110" height="30" as="geometry" />
        </mxCell>
        <mxCell id="IVa9H1ykFnVAchqWtqsk-229" value="A&amp;nbsp; -&amp;gt; B&amp;nbsp; 2 pin1&amp;nbsp;&amp;nbsp;" style="text;html=1;align=center;verticalAlign=middle;resizable=0;points=[];autosize=1;strokeColor=none;fillColor=none;" vertex="1" parent="1">
          <mxGeometry x="67.5" y="180" width="110" height="30" as="geometry" />
        </mxCell>
        <mxCell id="IVa9H1ykFnVAchqWtqsk-230" value="B -&amp;gt; C&amp;nbsp; 3 pin1&amp;nbsp;&amp;nbsp;" style="text;html=1;align=center;verticalAlign=middle;resizable=0;points=[];autosize=1;strokeColor=none;fillColor=none;" vertex="1" parent="1">
          <mxGeometry x="167.5" y="180" width="100" height="30" as="geometry" />
        </mxCell>
        <mxCell id="IVa9H1ykFnVAchqWtqsk-231" value="A&amp;nbsp; -&amp;gt; D&amp;nbsp; 1 pin2&amp;nbsp;" style="text;html=1;align=center;verticalAlign=middle;resizable=0;points=[];autosize=1;strokeColor=none;fillColor=none;" vertex="1" parent="1">
          <mxGeometry x="-20" y="260" width="100" height="30" as="geometry" />
        </mxCell>
        <mxCell id="IVa9H1ykFnVAchqWtqsk-232" value="D&amp;nbsp; -&amp;gt; B&amp;nbsp; 2 pin2&amp;nbsp;&amp;nbsp;" style="text;html=1;align=center;verticalAlign=middle;resizable=0;points=[];autosize=1;strokeColor=none;fillColor=none;" vertex="1" parent="1">
          <mxGeometry x="70" y="260" width="110" height="30" as="geometry" />
        </mxCell>
        <mxCell id="IVa9H1ykFnVAchqWtqsk-242" value="D&amp;nbsp; -&amp;gt; A&amp;nbsp; 1 pin2&amp;nbsp;" style="text;html=1;align=center;verticalAlign=middle;resizable=0;points=[];autosize=1;strokeColor=none;fillColor=none;" vertex="1" parent="1">
          <mxGeometry x="-20" y="330" width="100" height="30" as="geometry" />
        </mxCell>
        <mxCell id="IVa9H1ykFnVAchqWtqsk-243" value="A&amp;nbsp; -&amp;gt; B&amp;nbsp; 2 pin2&amp;nbsp;&amp;nbsp;" style="text;html=1;align=center;verticalAlign=middle;resizable=0;points=[];autosize=1;strokeColor=none;fillColor=none;" vertex="1" parent="1">
          <mxGeometry x="70" y="330" width="110" height="30" as="geometry" />
        </mxCell>
        <mxCell id="IVa9H1ykFnVAchqWtqsk-244" value="&lt;font color=&quot;#990000&quot;&gt;Src&amp;nbsp;&lt;br&gt;dst&amp;nbsp; &lt;br&gt;pin第几跳访问的dst&lt;br&gt;pin id&lt;/font&gt;" style="text;html=1;strokeColor=none;fillColor=none;align=center;verticalAlign=middle;whiteSpace=wrap;rounded=0;" vertex="1" parent="1">
          <mxGeometry x="-570" y="80" width="140" height="60" as="geometry" />
        </mxCell>
        <mxCell id="IVa9H1ykFnVAchqWtqsk-248" value="mirror dst" style="ellipse;whiteSpace=wrap;html=1;aspect=fixed;strokeColor=#CC0000;fontColor=#990000;" vertex="1" parent="1">
          <mxGeometry x="-466" y="420" width="80" height="80" as="geometry" />
        </mxCell>
        <mxCell id="IVa9H1ykFnVAchqWtqsk-249" value="CSC压缩格式" style="text;html=1;align=center;verticalAlign=middle;resizable=0;points=[];autosize=1;strokeColor=none;fillColor=none;fontColor=#990000;" vertex="1" parent="1">
          <mxGeometry x="-550" y="400" width="100" height="30" as="geometry" />
        </mxCell>
        <mxCell id="IVa9H1ykFnVAchqWtqsk-250" value="src" style="rounded=0;whiteSpace=wrap;html=1;strokeColor=#CC0000;fontColor=#990000;" vertex="1" parent="1">
          <mxGeometry x="-540" y="570" width="40" height="60" as="geometry" />
        </mxCell>
        <mxCell id="IVa9H1ykFnVAchqWtqsk-252" style="edgeStyle=orthogonalEdgeStyle;rounded=0;orthogonalLoop=1;jettySize=auto;html=1;entryX=0.5;entryY=1;entryDx=0;entryDy=0;fontColor=#990000;" edge="1" parent="1" source="IVa9H1ykFnVAchqWtqsk-251" target="IVa9H1ykFnVAchqWtqsk-248">
          <mxGeometry relative="1" as="geometry" />
        </mxCell>
        <mxCell id="IVa9H1ykFnVAchqWtqsk-251" value="hop，pin" style="rounded=0;whiteSpace=wrap;html=1;strokeColor=#CC0000;fontColor=#990000;" vertex="1" parent="1">
          <mxGeometry x="-500" y="570" width="150" height="60" as="geometry" />
        </mxCell>
        <mxCell id="IVa9H1ykFnVAchqWtqsk-253" value="src" style="rounded=0;whiteSpace=wrap;html=1;strokeColor=#CC0000;fontColor=#990000;" vertex="1" parent="1">
          <mxGeometry x="-350" y="570" width="40" height="60" as="geometry" />
        </mxCell>
        <mxCell id="IVa9H1ykFnVAchqWtqsk-254" value="hop，pin" style="rounded=0;whiteSpace=wrap;html=1;strokeColor=#CC0000;fontColor=#990000;" vertex="1" parent="1">
          <mxGeometry x="-310" y="570" width="150" height="60" as="geometry" />
        </mxCell>
        <mxCell id="IVa9H1ykFnVAchqWtqsk-255" value="。。。。。" style="text;html=1;align=center;verticalAlign=middle;resizable=0;points=[];autosize=1;strokeColor=none;fillColor=none;fontColor=#990000;" vertex="1" parent="1">
          <mxGeometry x="-170" y="585" width="80" height="30" as="geometry" />
        </mxCell>
        <mxCell id="IVa9H1ykFnVAchqWtqsk-256" value="dst 的存储按照hop的大小存储，stdsort(i,i+offset, std::greater())" style="text;html=1;align=center;verticalAlign=middle;resizable=0;points=[];autosize=1;strokeColor=none;fillColor=none;fontColor=#990000;" vertex="1" parent="1">
          <mxGeometry x="-530" y="660" width="360" height="30" as="geometry" />
        </mxCell>
      </root>
    </mxGraphModel>
  </diagram>
</mxfile>
